<?xml version="1.0" standalone="no"?>
<!DOCTYPE svg PUBLIC "-//W3C//DTD SVG 20010904//EN"
 "http://www.w3.org/TR/2001/REC-SVG-20010904/DTD/svg10.dtd">
<svg version="1.0" xmlns="http://www.w3.org/2000/svg"
 width="1240.000000pt" height="1080.000000pt" viewBox="0 0 1240.000000 1080.000000"
 preserveAspectRatio="xMidYMid meet">

<g transform="translate(0.000000,1080.000000) scale(0.100000,-0.100000)"
fill="#000000" stroke="none">
<path d="M0 5400 c0 -3593 3 -5400 10 -5400 7 0 10 1807 10 5400 0 3593 -3
5400 -10 5400 -7 0 -10 -1807 -10 -5400z"/>
<path d="M5977 10723 c-17 -16 -6 -63 18 -79 26 -17 35 -39 13 -31 -7 2 -23 1
-35 -4 -15 -6 -29 -2 -47 12 -15 12 -27 15 -31 9 -9 -14 -42 -12 -73 4 -89 46
-176 75 -222 76 -21 0 20 -32 97 -76 85 -48 88 -57 17 -49 -87 10 -177 33
-234 61 -73 35 -94 31 -47 -10 56 -50 50 -59 -35 -50 -40 4 -118 6 -173 4 -55
-1 -116 -3 -135 -2 -19 0 -89 1 -155 2 -66 0 -131 -3 -145 -8 l-24 -9 30 -18
c40 -26 74 -57 74 -68 0 -6 -25 -8 -62 -4 l-63 5 48 -21 c26 -11 47 -24 47
-29 0 -7 -81 -11 -285 -13 -28 0 -56 -4 -63 -9 -7 -4 -34 -11 -59 -14 -89 -13
-45 -32 141 -61 131 -21 163 -45 74 -56 -59 -7 -323 1 -338 10 -14 8 -139 10
-147 2 -3 -4 8 -10 25 -13 56 -11 40 -30 -61 -75 -53 -23 -82 -42 -90 -59 -10
-20 -35 -33 -133 -66 -119 -40 -348 -159 -345 -180 1 -5 15 -8 31 -6 44 5 43
-11 -6 -52 -24 -20 -42 -41 -39 -46 3 -5 -5 -12 -17 -16 -12 -3 -29 -13 -37
-21 -8 -8 -32 -26 -54 -40 -53 -33 -217 -192 -217 -210 0 -18 37 -8 66 18 21
19 44 25 44 12 0 -5 -15 -18 -33 -30 -18 -13 -46 -41 -63 -63 -16 -22 -35 -40
-41 -40 -7 0 -19 -15 -27 -32 -14 -33 -67 -93 -119 -135 -35 -30 -35 -46 1
-39 35 8 56 -6 48 -32 -7 -22 -77 -88 -150 -141 -46 -33 -91 -92 -84 -111 2
-6 37 7 78 28 133 70 150 66 71 -17 -27 -28 -51 -63 -53 -79 -3 -15 -13 -44
-22 -66 -17 -37 -17 -38 1 -31 31 13 73 18 73 8 0 -5 -25 -41 -56 -79 -65 -80
-114 -161 -114 -187 0 -11 9 -21 20 -24 11 -3 20 -11 20 -18 0 -35 -89 -237
-110 -250 -5 -3 -10 -15 -10 -27 0 -17 2 -18 15 -8 12 10 15 9 15 -4 0 -9 -7
-30 -15 -45 -8 -16 -16 -48 -18 -72 -3 -24 -8 -59 -12 -78 -8 -33 -7 -34 16
-27 13 4 34 9 46 9 12 1 25 5 29 10 4 4 14 7 22 7 24 0 5 -79 -34 -138 -36
-55 -39 -87 -7 -75 10 3 26 15 35 27 32 40 28 9 -8 -59 -20 -40 -33 -77 -30
-88 3 -11 -5 -55 -16 -98 -22 -80 -20 -101 6 -80 8 7 16 8 19 4 2 -4 3 -60 1
-123 -1 -74 1 -120 9 -128 6 -8 13 -65 16 -128 5 -94 3 -118 -9 -130 -13 -15
-13 -15 7 -9 35 10 44 -28 54 -215 7 -146 24 -268 45 -338 5 -18 -6 -42 -52
-109 -33 -47 -68 -93 -79 -102 -11 -9 -39 -47 -62 -86 -65 -110 -98 -151 -143
-176 -64 -36 -70 -62 -54 -210 16 -150 26 -186 69 -254 43 -67 101 -184 126
-255 22 -65 47 -173 95 -410 94 -470 175 -753 261 -905 52 -93 73 -147 73
-191 0 -24 6 -34 23 -39 l22 -8 -22 -4 c-25 -5 -25 3 9 -168 20 -105 30 -136
72 -249 61 -162 148 -304 253 -416 59 -64 215 -200 228 -200 4 0 21 -10 38
-22 18 -13 41 -28 52 -34 21 -11 90 -50 128 -71 12 -7 29 -13 38 -13 9 0 22
-7 29 -15 7 -8 19 -15 26 -15 7 0 30 -9 51 -19 21 -10 62 -30 91 -42 28 -13
52 -27 52 -31 0 -5 9 -8 21 -8 11 0 33 -6 47 -14 41 -21 137 -63 232 -101 62
-25 149 -63 183 -81 16 -8 37 -14 47 -14 10 0 22 -4 25 -10 3 -5 16 -10 27
-10 12 0 30 -8 41 -17 10 -10 41 -27 68 -39 28 -11 51 -25 51 -30 1 -5 -30
-25 -68 -44 -38 -19 -71 -38 -74 -41 -3 -3 -27 -18 -53 -34 -26 -15 -46 -30
-43 -33 3 -2 -13 -18 -34 -33 -22 -16 -40 -36 -40 -44 0 -9 -6 -12 -15 -9 -8
4 -15 2 -15 -4 0 -6 -21 -34 -47 -64 -54 -60 -69 -81 -84 -120 -6 -16 -15 -28
-19 -28 -5 0 -12 -10 -16 -22 -4 -13 -15 -29 -25 -36 -11 -7 -19 -23 -19 -35
0 -13 -7 -32 -15 -44 -8 -12 -13 -28 -10 -35 3 -8 -1 -33 -10 -57 -40 -114 -4
-476 61 -609 26 -54 69 -102 91 -102 6 0 15 -9 18 -20 3 -11 13 -20 21 -20 9
0 14 -8 13 -17 -4 -28 33 -83 56 -83 17 0 17 -2 5 -10 -10 -6 -11 -10 -3 -10
7 0 33 -20 57 -45 25 -25 49 -45 52 -45 4 0 30 -17 58 -38 103 -77 122 -90
176 -117 30 -15 75 -42 100 -60 50 -36 190 -117 190 -109 0 6 -62 94 -115 164
-23 30 -113 161 -200 290 -87 129 -166 246 -177 259 -26 34 -23 46 22 100 22
26 40 53 40 59 0 7 5 12 10 12 6 0 10 6 10 14 0 8 13 25 29 38 171 137 190
161 227 283 16 52 19 99 19 367 0 219 3 309 11 312 6 2 22 -1 35 -8 13 -6 49
-22 79 -35 30 -13 89 -39 130 -58 41 -19 89 -41 107 -49 17 -8 41 -14 52 -14
12 0 24 -7 27 -15 4 -10 14 -13 29 -9 13 3 28 -1 37 -9 7 -8 27 -14 43 -14 45
0 178 -24 192 -35 6 -5 28 -6 47 -2 32 5 36 4 36 -15 0 -17 6 -21 35 -21 22 0
38 6 41 15 7 17 34 20 34 4 0 -8 4 -8 14 0 10 9 16 8 26 -4 11 -13 15 -13 29
-2 22 19 66 20 81 2 16 -20 30 -19 30 1 0 13 6 11 25 -10 30 -33 39 -33 31 -1
-7 28 5 33 24 10 17 -21 30 -19 30 4 0 17 7 20 43 19 23 -1 47 -5 54 -10 7 -6
15 -3 20 7 10 17 128 49 151 40 8 -3 20 0 28 5 7 6 23 13 36 14 13 2 40 11 60
20 21 9 42 16 48 16 6 0 18 4 28 10 9 5 28 14 42 20 14 5 32 14 40 20 8 5 56
28 105 50 50 23 103 48 118 57 21 11 32 12 40 4 7 -7 10 -93 8 -268 -1 -142 2
-289 8 -328 18 -138 75 -244 167 -316 31 -24 73 -68 94 -98 44 -65 97 -118
123 -123 32 -6 106 158 141 312 22 97 22 113 12 207 -6 56 -14 105 -18 109 -5
4 -8 18 -8 30 0 13 -4 26 -10 29 -5 3 -10 17 -10 31 0 13 -4 24 -10 24 -5 0
-18 17 -29 38 -11 20 -43 61 -71 91 -28 29 -57 69 -65 87 -8 19 -25 38 -39 43
-13 6 -27 15 -31 20 -9 15 -48 14 -43 -1 3 -7 14 -17 26 -23 12 -5 22 -15 22
-21 0 -6 6 -16 13 -22 13 -11 15 -97 3 -109 -3 -4 -6 1 -6 10 0 9 -9 21 -20
27 -11 6 -20 20 -20 30 0 12 -7 20 -18 20 -9 0 -22 10 -27 22 -6 13 -21 28
-33 34 -13 7 -39 28 -58 48 -19 20 -34 33 -34 29 0 -4 -7 2 -15 13 -8 10 -15
28 -15 40 0 22 28 54 48 54 6 0 16 9 22 20 6 11 16 17 26 13 8 -3 24 3 35 13
12 11 23 17 26 15 6 -5 93 32 93 40 0 4 -6 9 -14 12 -7 3 -16 21 -20 41 l-7
35 -24 -21 c-17 -15 -25 -32 -25 -54 0 -27 -3 -31 -20 -27 -13 4 -20 0 -20
-10 0 -21 -42 -30 -53 -11 -6 11 -12 12 -22 4 -10 -8 -18 -4 -34 17 -15 21
-20 24 -21 11 0 -9 7 -21 16 -26 9 -5 14 -15 10 -21 -4 -6 -11 -9 -16 -6 -5 3
-11 1 -15 -4 -4 -7 -14 -6 -30 1 -19 8 -28 8 -40 -2 -8 -7 -22 -9 -31 -6 -13
5 -14 1 -9 -24 4 -19 3 -30 -4 -30 -6 0 -11 -7 -11 -15 0 -8 -4 -15 -10 -15
-5 0 -10 10 -10 23 0 33 -11 67 -21 67 -5 0 -9 -11 -9 -25 0 -14 -4 -25 -9
-25 -11 0 -22 55 -15 75 4 8 3 15 0 15 -4 0 -12 -14 -17 -30 -14 -39 -27 -38
-31 3 -2 24 -8 33 -25 35 -13 2 -23 -1 -23 -7 0 -6 5 -11 10 -11 16 0 12 -57
-4 -63 -8 -3 -16 -16 -18 -29 -3 -23 -3 -23 -15 -2 -7 11 -14 34 -17 50 -5 27
-29 54 -48 54 -11 0 -10 -4 9 -46 17 -35 17 -36 -2 -50 -10 -8 -33 -14 -49
-14 -47 -1 -70 -23 -63 -59 8 -36 -8 -50 -23 -21 -6 11 -15 18 -20 15 -4 -3
-11 29 -15 70 -4 41 -11 75 -16 75 -9 0 -5 -83 5 -99 3 -5 -1 -14 -9 -21 -8
-7 -15 -21 -15 -32 0 -19 -2 -18 -29 4 -17 13 -30 28 -30 34 -1 18 -33 26 -43
12 -4 -7 -8 -22 -8 -33 0 -13 -7 -6 -20 20 -23 46 -19 81 6 49 14 -18 14 -18
12 6 -2 14 -9 25 -18 25 -8 0 -17 11 -20 24 -3 14 -11 26 -17 28 -18 6 -20
-39 -4 -66 12 -19 13 -25 3 -29 -6 -2 -12 -10 -12 -18 0 -8 -4 -14 -10 -14 -5
0 -10 6 -10 14 0 22 -15 27 -43 17 -19 -7 -27 -19 -30 -43 -3 -30 -4 -29 -5 8
-1 28 -7 44 -18 48 -13 5 -15 15 -11 40 4 26 1 36 -10 40 -23 9 -27 1 -15 -32
6 -17 6 -35 1 -43 -6 -11 -12 -9 -29 8 -11 12 -20 27 -20 33 0 5 -7 10 -15 10
-8 0 -15 -4 -15 -10 0 -5 5 -10 10 -10 6 0 10 -7 10 -15 0 -19 -7 -19 -27 0
-32 33 -41 -17 -17 -103 4 -12 2 -22 -4 -22 -15 0 -31 53 -25 83 3 15 0 34 -7
42 -10 13 -15 12 -30 -7 -15 -20 -22 -21 -46 -12 -16 6 -28 16 -26 24 2 7 0
26 -4 43 -5 26 -8 28 -16 13 -6 -10 -8 -26 -5 -37 8 -30 -36 -59 -78 -52 -28
5 -35 2 -35 -11 0 -13 -4 -15 -17 -8 -10 6 -27 6 -45 0 -35 -13 -41 -9 -22 16
11 16 16 17 29 6 12 -10 16 -8 25 15 5 14 10 38 10 51 0 35 -24 26 -28 -10 -3
-19 -8 -26 -18 -22 -9 4 -19 -4 -26 -19 -6 -14 -24 -30 -40 -37 -15 -7 -28
-18 -28 -24 0 -6 -6 -17 -14 -23 -12 -10 -18 -7 -30 18 -9 16 -16 38 -16 48 0
10 -12 -6 -28 -36 -15 -29 -32 -54 -37 -55 -5 0 -13 18 -18 42 -4 23 -11 42
-15 43 -33 3 -67 9 -78 13 -17 7 -18 40 -2 66 15 24 6 34 -22 25 -13 -4 -23
-18 -27 -36 -6 -33 -41 -38 -35 -5 5 30 -7 66 -22 66 -8 0 -24 -11 -34 -25
-23 -29 -35 -19 -27 22 5 25 5 26 -4 6 -6 -13 -15 -23 -21 -23 -6 0 -8 -15 -4
-40 4 -27 3 -40 -5 -40 -6 0 -10 10 -8 22 1 16 -5 23 -28 29 -16 5 -36 7 -42
4 -7 -2 -13 2 -13 10 0 8 -7 15 -15 15 -9 0 -18 7 -21 15 -9 22 -24 18 -24 -5
0 -11 -7 -20 -15 -20 -18 0 -18 1 -5 34 14 37 -8 45 -32 13 -24 -33 -38 -35
-30 -5 5 22 5 22 -21 5 -38 -25 -35 -1 5 40 38 40 31 54 -11 22 -17 -12 -34
-19 -38 -15 -4 4 -1 11 6 16 8 4 11 15 8 24 -7 17 -27 22 -27 6 0 -5 -15 -13
-32 -18 -29 -7 -34 -5 -46 17 -11 22 -11 27 2 37 22 16 20 44 -3 44 -10 0 -30
-9 -45 -21 -14 -11 -26 -16 -26 -10 0 6 -4 11 -9 11 -5 0 -7 -8 -4 -19 3 -14
-2 -20 -21 -23 -22 -5 -24 -3 -15 14 14 27 3 35 -19 15 -24 -22 -34 -21 -30 1
2 13 -3 16 -22 13 -23 -3 -24 -2 -9 15 25 30 60 96 54 102 -3 3 -19 -5 -36
-17 -29 -21 -31 -22 -43 -5 -14 18 -36 12 -36 -10 0 -14 -28 -42 -34 -35 -11
11 9 62 26 67 14 3 18 12 16 30 -4 31 -25 41 -35 16 -4 -10 -18 -31 -32 -47
l-26 -29 -5 32 -5 32 -24 -21 c-20 -17 -27 -19 -39 -8 -13 10 -11 13 14 17 22
4 30 12 33 30 3 24 2 24 -16 7 -25 -22 -33 -22 -33 2 0 10 -9 21 -20 24 -17 4
-19 11 -14 31 8 33 -8 34 -33 2 -10 -13 -29 -26 -41 -30 -18 -6 -22 -3 -22 13
0 29 -16 34 -47 14 -15 -9 -25 -13 -20 -8 4 4 0 16 -8 26 -22 23 -10 69 17 69
16 0 19 -5 14 -24 -5 -20 -3 -23 13 -19 14 4 19 14 19 41 0 23 6 41 18 49 10
7 15 16 11 19 -3 3 -20 -4 -38 -17 -22 -15 -34 -19 -37 -11 -7 22 -22 13 -39
-23 -16 -34 -33 -41 -40 -18 -2 6 8 24 22 42 15 17 24 35 20 41 -8 13 -35 13
-35 0 0 -5 -7 -10 -15 -10 -8 0 -15 5 -15 10 0 6 -4 10 -10 10 -5 0 -10 -8
-10 -18 0 -19 -18 -42 -32 -42 -15 0 -8 26 12 43 11 9 20 26 20 37 0 11 7 23
15 26 8 4 15 17 15 31 0 13 -4 21 -10 18 -6 -3 -10 -1 -10 6 0 8 -6 6 -18 -4
-10 -10 -28 -17 -39 -17 -11 0 -25 -10 -31 -25 -12 -26 -26 -32 -37 -15 -3 6
-2 10 2 10 10 0 10 84 0 88 -17 6 -38 1 -32 -8 3 -5 -1 -10 -9 -10 -10 0 -13
6 -9 18 6 15 4 15 -15 -2 -30 -26 -36 -15 -15 28 14 30 15 41 5 56 -7 11 -12
29 -12 41 0 20 0 20 -27 1 -16 -10 -36 -22 -45 -25 -10 -4 -18 -13 -18 -21 0
-19 23 -33 28 -18 2 7 10 12 17 12 27 0 27 -23 0 -48 -26 -24 -27 -24 -20 -3
6 19 4 22 -15 19 -36 -5 -36 35 -1 86 23 32 27 46 18 55 -17 17 -37 13 -37 -7
0 -10 -11 -29 -25 -42 -24 -22 -25 -23 -25 -3 0 11 11 30 24 42 16 15 23 32
22 49 -3 28 -20 40 -31 23 -3 -6 -14 -11 -23 -11 -12 0 -13 3 -4 12 7 7 12 16
12 20 0 14 -37 9 -50 -7 -11 -13 -10 -18 6 -30 18 -14 17 -14 -11 -14 -16 0
-38 5 -47 13 -16 12 -16 14 4 30 15 13 17 21 9 29 -18 18 -13 37 12 47 21 8
21 9 -5 9 -23 1 -28 5 -28 27 0 22 -4 25 -21 21 -31 -8 -70 9 -63 28 4 8 1 22
-6 30 -19 23 -6 40 54 69 31 15 56 32 56 37 0 12 -73 0 -78 -12 -2 -5 -13 -9
-23 -9 -11 0 -17 -5 -14 -10 3 -6 -1 -10 -9 -10 -9 0 -16 -6 -16 -14 0 -10 -7
-11 -35 -2 -33 10 -48 26 -25 26 6 0 10 5 10 10 0 6 -10 4 -22 -4 -13 -8 -34
-17 -48 -20 -22 -6 -20 -2 15 29 32 28 46 34 67 29 25 -5 77 20 78 37 0 16
-33 17 -56 3 -13 -9 -27 -14 -31 -10 -3 3 -1 6 5 6 7 0 12 7 12 16 0 13 -7 15
-34 10 -37 -7 -63 11 -29 20 10 3 25 15 32 26 12 19 11 20 -11 15 -12 -4 -28
-7 -34 -7 -20 0 -56 -42 -51 -61 3 -10 -2 -20 -10 -23 -8 -3 -11 -1 -8 4 3 6
-4 10 -17 10 l-23 0 21 18 c27 21 41 62 22 63 -7 0 10 11 39 24 48 22 56 22
135 12 130 -16 1229 -15 1348 1 221 32 397 119 541 269 47 49 103 116 124 149
101 157 186 386 265 714 28 118 70 290 92 382 27 111 46 172 59 184 10 9 43
22 74 29 65 15 154 0 186 -32 18 -18 49 -130 98 -358 71 -325 167 -635 251
-808 36 -74 75 -133 131 -200 92 -110 134 -148 239 -209 212 -124 372 -144
1100 -135 657 8 806 27 952 121 172 111 268 311 386 801 23 94 53 231 67 305
78 412 114 525 220 691 54 84 61 108 80 269 15 141 8 168 -54 196 -33 14 -53
36 -103 113 -35 53 -82 120 -106 149 -39 48 -120 161 -164 230 -10 15 -18 43
-18 62 0 51 27 247 36 262 4 7 8 78 9 158 2 173 21 254 63 265 24 6 24 8 18
73 -28 291 -27 358 1 375 13 8 8 223 -7 295 -7 34 -9 66 -5 70 4 4 20 -8 36
-27 16 -19 32 -32 36 -28 4 4 1 42 -6 83 -7 42 -10 78 -7 81 3 4 17 1 31 -5
35 -16 55 -15 55 3 0 9 -23 60 -50 114 -28 54 -50 102 -50 107 -1 5 -9 27 -20
49 -15 33 -16 41 -4 43 7 2 27 -6 43 -17 16 -12 32 -21 35 -21 11 0 6 41 -8
63 -20 31 -23 71 -7 90 27 34 -44 163 -172 311 -23 27 -43 52 -45 56 -1 4 15
10 38 14 22 3 40 10 40 16 0 11 -78 77 -111 94 -73 36 35 70 131 41 31 -9 67
-15 80 -13 22 3 17 9 -45 55 -38 28 -93 61 -123 73 -55 20 -126 73 -115 84 4
3 18 6 32 6 16 0 21 4 16 9 -6 6 -62 15 -125 22 -63 6 -119 16 -124 20 -6 6 3
22 22 42 18 18 32 37 32 42 0 4 6 16 14 24 18 21 30 77 18 85 -6 3 -33 -16
-62 -43 -66 -62 -84 -59 -75 13 4 28 12 62 17 75 6 17 5 27 -3 31 -8 6 -8 9 1
12 8 2 10 12 5 27 l-7 24 -23 -29 -23 -29 -32 68 c-28 60 -33 67 -54 61 -18
-4 -28 1 -42 21 -11 14 -33 44 -51 66 -18 22 -35 57 -39 77 -9 59 -13 67 -53
130 -29 44 -36 63 -28 71 8 8 8 14 -1 23 -9 9 -12 8 -12 -5 0 -29 -24 -19 -69
29 -33 35 -49 45 -66 41 -18 -3 -34 7 -67 40 -24 25 -65 63 -92 86 l-48 41 7
-32 c5 -25 3 -32 -8 -32 -8 0 -20 7 -27 15 -7 8 -16 15 -21 15 -4 0 -55 31
-111 68 -142 94 -238 136 -254 111 -3 -6 10 -27 30 -48 20 -20 36 -42 36 -49
0 -15 26 -58 54 -89 36 -41 -4 -25 -115 47 -160 103 -267 152 -459 208 -180
53 -271 54 -153 2 44 -19 125 -90 104 -90 -6 0 -28 6 -48 14 -21 8 -63 19 -93
25 -49 10 -141 31 -207 48 -29 7 -30 -11 -1 -31 34 -24 18 -26 -57 -10 -39 9
-88 20 -110 24 -22 5 -74 18 -115 30 -95 27 -300 70 -365 76 -83 8 -25 -25
132 -74 29 -9 55 -23 58 -30 4 -12 -10 -13 -82 -8 -49 4 -162 9 -252 11 -131
4 -169 8 -190 22 -35 22 -61 53 -61 71 0 19 -50 122 -60 122 -3 0 -10 -3 -13
-7z m558 -953 c3 -5 15 -10 26 -10 10 0 19 -4 19 -10 0 -13 -10 -13 -49 1 -17
6 -31 15 -31 20 0 12 27 11 35 -1z m1215 -40 c122 -31 167 -41 183 -43 9 -1
17 -9 17 -19 0 -14 -8 -18 -33 -18 -18 0 -37 4 -42 9 -6 4 -36 13 -67 19 -72
14 -160 51 -152 64 4 5 18 7 33 3 14 -3 42 -10 61 -15z m-1115 0 c3 -5 1 -10
-4 -10 -6 0 -11 5 -11 10 0 6 2 10 4 10 3 0 8 -4 11 -10z m1977 -55 c25 -14
52 -32 58 -40 7 -8 19 -15 26 -15 8 0 14 -5 14 -11 0 -7 -10 -9 -24 -7 -19 4
-22 1 -18 -14 6 -26 -21 -23 -56 7 -17 14 -34 25 -40 25 -5 0 -17 10 -25 23
-14 21 -13 24 1 34 15 9 12 12 -16 27 -17 9 -32 18 -32 21 0 6 59 -20 112 -50z
m-82 -145 c65 -68 100 -110 101 -124 0 -6 2 -21 5 -34 3 -17 1 -21 -8 -15 -7
4 -22 6 -34 5 -14 -2 -40 16 -80 55 -33 32 -87 83 -119 114 -33 31 -69 66 -80
79 l-20 22 43 -7 c28 -4 42 -3 42 4 0 18 102 -49 150 -99z m-2477 13 c-7 -2
-21 -2 -30 0 -10 3 -4 5 12 5 17 0 24 -2 18 -5z m57 -9 c0 -2 -7 -4 -15 -4 -8
0 -15 4 -15 10 0 5 7 7 15 4 8 -4 15 -8 15 -10z m1757 -216 c27 -13 52 -29 56
-35 4 -7 15 -13 23 -13 8 0 22 -4 32 -9 9 -5 25 -12 35 -15 10 -3 15 -10 12
-16 -4 -7 -12 -7 -25 0 -10 5 -30 10 -44 10 -15 0 -51 19 -86 46 -81 61 -81
68 -3 32z m-951 -129 c28 -5 100 -9 160 -8 107 2 136 -3 248 -44 21 -8 42 -20
46 -27 6 -9 10 -8 18 6 10 18 11 18 17 1 4 -9 2 -23 -4 -31 -13 -15 4 -26 40
-26 10 0 19 -4 19 -10 0 -14 -30 -13 -98 4 -31 8 -95 22 -142 31 -47 9 -105
23 -130 32 -25 9 -70 21 -100 28 -30 7 -73 17 -95 23 -22 5 -52 13 -67 16 -16
4 -28 11 -28 16 0 9 15 8 116 -11z m799 11 c3 -5 1 -10 -4 -10 -6 0 -11 5 -11
10 0 6 2 10 4 10 3 0 8 -4 11 -10z m-858 -191 c70 -6 132 -15 138 -20 5 -5 21
-9 36 -9 15 0 31 -5 35 -12 5 -8 -5 -9 -37 -5 -24 4 -105 14 -179 23 -74 8
-155 19 -180 23 l-45 8 52 2 c29 0 110 -4 180 -10z m-167 -45 c0 -2 -7 -4 -15
-4 -8 0 -15 4 -15 10 0 5 7 7 15 4 8 -4 15 -8 15 -10z m-50 -23 c25 -6 70 -15
100 -21 59 -10 125 -31 137 -44 5 -5 -19 -6 -52 -2 -101 10 -140 10 -154 2 -7
-5 -77 -5 -155 -1 -77 5 -208 7 -291 7 -178 -2 -176 11 4 27 69 6 127 14 130
19 21 30 181 37 281 13z m-570 -61 c0 -5 -7 -10 -16 -10 -8 0 -12 5 -9 10 3 6
10 10 16 10 5 0 9 -4 9 -10z m3440 -278 c0 -1 -9 2 -20 8 -11 6 -20 15 -20 20
0 6 9 2 20 -7 11 -10 20 -19 20 -21z m-1302 -65 c7 -6 10 -17 7 -24 -3 -8 8
-28 25 -45 17 -16 30 -34 30 -39 0 -12 77 -12 100 1 24 13 40 -13 37 -56 -2
-23 2 -28 16 -26 24 4 30 -19 19 -72 -9 -45 -2 -74 16 -62 12 7 22 -16 22 -50
0 -29 26 -84 40 -84 4 0 14 -34 21 -75 6 -42 16 -78 20 -81 5 -3 20 7 34 23
l24 28 1 -61 c0 -35 6 -68 14 -79 13 -18 15 -18 40 10 15 16 24 22 22 14 -8
-20 -15 -167 -8 -174 8 -8 42 26 42 42 0 7 5 13 10 13 6 0 10 -7 10 -15 0 -8
5 -15 10 -15 6 0 10 -30 10 -71 0 -57 8 -96 40 -190 22 -65 40 -127 40 -138 0
-10 7 -35 15 -55 13 -30 20 -36 35 -31 16 5 20 2 20 -17 1 -13 8 -41 16 -63 8
-22 17 -50 19 -61 6 -28 53 -112 82 -147 12 -15 29 -49 37 -76 7 -26 25 -70
38 -97 14 -27 33 -83 43 -124 9 -41 25 -93 35 -116 10 -22 21 -67 25 -100 4
-32 13 -75 21 -94 26 -72 34 -136 24 -220 -5 -46 -11 -84 -13 -86 -2 -2 -122
10 -267 26 -360 40 -654 54 -1010 47 -448 -10 -697 -34 -950 -93 -134 -31
-203 -54 -370 -121 -154 -63 -216 -72 -470 -73 -159 0 -250 11 -319 40 -281
115 -449 164 -666 194 -461 66 -1208 72 -1700 15 -251 -29 -329 -37 -336 -33
-9 5 8 134 30 225 13 54 21 120 21 173 0 47 4 94 9 104 31 57 47 98 44 108 -2
6 3 17 12 24 8 7 15 21 15 31 0 10 4 21 10 24 5 3 10 14 10 24 0 10 7 25 17
32 19 17 77 141 86 185 3 18 17 49 32 69 14 21 30 55 36 77 5 22 21 59 35 83
13 24 24 53 24 64 0 12 6 21 14 21 8 0 21 17 31 38 21 45 55 108 79 145 13 20
24 26 38 21 10 -3 25 -1 31 5 10 8 21 -5 45 -53 18 -35 32 -72 32 -84 0 -27
17 -38 24 -15 3 10 10 72 16 138 12 137 30 256 40 268 11 13 40 -184 40 -271
0 -52 7 -101 20 -142 11 -34 20 -68 20 -75 0 -6 9 -20 20 -30 19 -17 19 -16
22 76 l3 94 49 -70 c27 -38 52 -71 57 -73 4 -2 27 -19 51 -38 64 -51 86 -42
54 23 -22 42 -46 134 -45 168 1 17 -9 74 -22 127 -12 54 -20 101 -16 104 4 4
18 -3 32 -16 35 -33 46 -17 33 45 -6 28 -14 55 -19 61 -16 20 -23 202 -9 247
16 49 62 97 93 97 12 0 28 4 36 9 29 19 43 1 40 -53 -2 -28 -2 -73 0 -101 2
-46 3 -48 13 -22 5 15 14 27 19 27 8 0 14 -48 10 -73 -1 -5 4 -27 11 -49 10
-33 13 -37 19 -22 4 11 8 43 8 72 1 74 51 225 85 257 6 5 25 11 41 11 17 1 69
8 118 16 48 8 87 12 88 9 1 -3 2 -13 3 -21 0 -8 9 -26 19 -40 l18 -25 19 25
c30 38 24 20 -20 -66 -45 -89 -47 -94 -22 -94 15 0 17 -7 14 -41 -3 -30 0 -43
14 -53 17 -13 17 -17 -4 -102 -32 -131 -38 -178 -22 -172 7 2 20 22 27 44 21
59 123 265 149 301 13 17 24 38 24 47 0 8 4 17 9 20 9 6 59 76 120 168 31 48
92 89 113 77 9 -5 29 -4 48 1 18 5 38 6 44 3 6 -4 40 -9 76 -10 36 -2 103 -5
150 -7 109 -6 234 -22 257 -34 10 -6 32 -8 48 -5 61 11 151 8 177 -4 15 -7 46
-15 70 -18 24 -3 69 -13 101 -21 51 -13 60 -13 79 0 15 11 34 13 64 9 27 -3
49 -1 58 6 9 7 33 9 68 5 40 -5 62 -2 85 9 17 9 50 18 74 20 106 10 245 28
259 33 8 4 49 8 90 11 40 2 100 13 132 24 31 10 79 19 104 19 31 0 54 6 66 17
16 14 24 15 48 6 35 -13 95 10 104 41 3 11 10 16 20 13 8 -3 20 1 26 9 7 8 30
14 55 14 32 0 46 5 57 21 12 18 17 20 35 10 34 -18 46 -14 33 10 -7 11 -10 23
-7 25 9 10 64 6 93 -6 40 -17 64 -8 64 24 0 14 5 28 10 31 6 3 10 1 10 -5 0
-20 31 -23 45 -4 8 11 14 14 15 7 0 -7 7 -13 16 -13 13 0 15 7 10 30 -5 30 -5
30 15 16 12 -8 27 -12 34 -9 8 2 25 -3 39 -12 20 -14 29 -15 40 -6 23 19 71
29 89 20 20 -12 39 18 30 49 -4 18 -2 20 19 15 12 -3 29 -10 36 -16z m1222
-2528 c0 -6 -4 -7 -10 -4 -5 3 -10 11 -10 16 0 6 5 7 10 4 6 -3 10 -11 10 -16z
m-4625 -59 c295 -21 627 -92 758 -162 32 -18 92 -62 131 -99 203 -190 221
-414 85 -1022 -88 -389 -178 -604 -320 -760 -102 -113 -253 -206 -393 -242
-187 -48 -1243 -45 -1491 4 -102 20 -220 78 -281 139 -81 82 -172 293 -229
537 -19 79 -80 419 -94 520 -32 238 -45 567 -26 660 14 63 42 131 51 122 3 -3
7 -65 8 -139 4 -190 38 -428 61 -428 6 0 21 10 33 23 19 20 21 28 12 53 -8 22
-7 40 4 70 9 27 11 46 4 57 -5 10 -6 23 -1 30 4 6 8 68 9 137 0 69 6 148 13
175 10 43 17 52 51 69 21 10 41 25 44 32 3 8 12 14 21 14 8 0 15 5 15 10 0 6
-15 10 -34 10 -58 0 -86 16 -86 48 0 30 11 38 95 69 90 33 352 67 620 82 191
11 744 5 940 -9z m3770 10 c355 -18 647 -71 698 -128 12 -13 14 -26 6 -62 -7
-40 -6 -186 6 -465 2 -52 8 -91 14 -93 6 -2 11 -11 11 -20 0 -15 -2 -15 -10
-2 -6 9 -10 10 -10 3 0 -6 5 -15 11 -18 6 -4 14 -17 19 -29 7 -17 9 -14 9 19
1 42 21 118 41 155 11 21 13 78 6 205 -2 33 0 92 3 130 l6 70 33 -55 c60 -102
65 -137 59 -389 -6 -251 -20 -381 -73 -670 -58 -326 -111 -509 -191 -663 -61
-118 -106 -167 -200 -215 -69 -36 -98 -46 -193 -68 -133 -30 -814 -45 -1211
-25 -215 10 -289 26 -409 86 -304 151 -459 418 -575 989 -44 212 -55 302 -62
467 -9 225 10 303 104 435 42 59 152 153 218 186 38 19 173 63 240 77 330 73
923 106 1450 80z m-5255 -2330 c0 -5 -9 -10 -21 -10 -11 0 -17 5 -14 10 3 6
13 10 21 10 8 0 14 -4 14 -10z m131 -51 l53 -11 -27 -20 c-15 -11 -24 -25 -20
-33 6 -18 -18 -20 -38 -2 -30 26 -51 56 -44 66 8 14 12 14 76 0z m-131 -134
c0 -12 -29 -3 -34 10 -4 13 -2 14 14 5 11 -6 20 -13 20 -15z m365 -275 c-27
-12 -43 -12 -25 0 8 5 22 9 30 9 10 0 8 -3 -5 -9z m-175 -34 c0 -2 -8 -10 -17
-17 -16 -13 -17 -12 -4 4 13 16 21 21 21 13z m330 -140 c0 -9 -30 -14 -35 -6
-4 6 3 10 14 10 12 0 21 -2 21 -4z m400 -411 c0 -33 -25 -33 -26 0 -1 15 3 25
12 25 8 0 14 -10 14 -25z m2765 -605 c-3 -5 -10 -10 -16 -10 -5 0 -9 5 -9 10
0 6 7 10 16 10 8 0 12 -4 9 -10z m-187 -69 c3 -16 -1 -22 -10 -19 -7 3 -15 15
-16 27 -3 16 1 22 10 19 7 -3 15 -15 16 -27z m-480 -41 c3 -21 2 -22 -12 -11
-19 16 -21 44 -3 39 6 -3 14 -15 15 -28z m-164 -36 c6 -24 2 -43 -8 -33 -11
10 -17 59 -8 59 5 0 13 -12 16 -26z m-29 -54 c3 -5 1 -10 -4 -10 -6 0 -11 5
-11 10 0 6 2 10 4 10 3 0 8 -4 11 -10z"/>
<path d="M4365 6603 c-138 -19 -357 -58 -435 -78 -52 -14 -117 -27 -143 -30
-41 -6 -58 -15 -108 -61 -33 -30 -64 -52 -69 -49 -18 11 -49 -15 -109 -96 -75
-99 -77 -114 -18 -106 25 4 48 2 54 -4 7 -7 24 -4 54 12 55 28 188 57 297 66
45 3 82 10 82 14 0 11 105 11 195 -1 72 -9 91 -6 65 10 -16 10 13 13 165 13
103 1 338 -19 529 -44 257 -34 279 -36 353 -38 40 -1 90 3 113 9 51 14 100 57
102 90 7 119 -19 148 -157 179 -55 13 -136 32 -180 43 -84 20 -256 37 -387 38
-42 0 -107 6 -145 14 -76 15 -212 26 -258 19z"/>
<path d="M7835 6590 c-22 -5 -132 -16 -245 -24 -201 -15 -305 -32 -523 -83
-131 -31 -157 -53 -157 -135 0 -106 57 -144 211 -141 53 2 168 12 255 23 355
46 407 51 609 55 117 3 201 2 191 -3 -35 -15 -2 -19 79 -10 80 9 95 8 279 -12
115 -13 251 -43 273 -61 19 -16 153 -19 153 -3 0 6 -15 31 -33 55 -18 24 -45
60 -60 80 -18 25 -37 39 -60 43 -23 4 -51 23 -82 55 -35 35 -59 50 -93 59
-183 42 -331 74 -417 88 -113 20 -320 27 -380 14z"/>
<path d="M4120 5910 c-197 -38 -360 -116 -454 -218 -183 -199 -266 -553 -207
-888 33 -185 126 -349 254 -442 58 -43 144 -88 152 -80 3 2 -7 11 -23 19 -15
8 -29 17 -32 20 -3 3 -26 19 -51 36 -64 44 -112 100 -143 169 -15 32 -31 66
-35 75 -5 8 -12 80 -16 160 -8 159 2 235 54 425 66 235 207 429 374 512 212
105 577 137 831 72 86 -22 260 -102 316 -146 69 -54 176 -173 205 -229 17 -31
38 -71 47 -88 50 -92 116 -370 119 -497 0 -25 4 -54 9 -65 7 -18 8 -19 15 -2
4 9 4 30 0 45 -4 15 -10 77 -14 137 -5 68 -15 133 -28 170 -11 33 -23 79 -27
101 -6 40 -18 71 -72 177 -13 26 -24 54 -24 62 0 8 -4 15 -8 15 -4 0 -16 14
-26 30 -17 30 -35 51 -104 123 -79 82 -308 215 -461 269 -165 57 -463 75 -651
38z"/>
<path d="M3607 5803 c-12 -11 15 -33 40 -33 19 0 24 4 19 16 -3 9 -6 18 -6 20
0 7 -46 5 -53 -3z"/>
<path d="M3533 5773 c15 -2 37 -2 50 0 12 2 0 4 -28 4 -27 0 -38 -2 -22 -4z"/>
<path d="M4568 5698 c-8 -4 4 -8 30 -8 23 0 42 2 42 4 0 8 -60 12 -72 4z"/>
<path d="M4444 5676 c-237 -74 -432 -276 -495 -513 -40 -149 -25 -363 34 -493
30 -66 100 -171 133 -200 30 -26 24 -16 -24 44 -35 43 -82 143 -103 216 -28
95 -2 107 39 18 12 -27 31 -68 42 -91 20 -44 87 -135 126 -172 90 -87 232
-163 339 -182 85 -15 243 -8 318 15 240 73 399 229 472 465 26 82 27 96 22
205 -7 133 -23 201 -69 288 -55 106 -76 126 -146 135 -34 5 -78 19 -98 31 -32
21 -35 26 -30 61 3 29 0 43 -14 57 -17 17 -111 50 -143 50 -9 0 -19 5 -22 10
-3 6 -26 10 -50 10 -24 0 -47 5 -50 10 -4 6 -10 8 -14 5 -5 -2 -49 -7 -100 -9
-76 -5 -91 -3 -91 9 0 8 -6 15 -13 15 -21 0 -28 -12 -16 -27 9 -10 7 -13 -9
-13 -12 0 -24 5 -27 10 -3 6 -16 10 -28 10 -14 1 -3 8 28 21 28 10 55 17 61
15 6 -2 17 0 25 5 22 13 -49 10 -97 -5z"/>
<path d="M5231 5460 c0 -8 13 -33 29 -55 51 -69 99 -170 122 -257 17 -66 22
-110 22 -213 0 -117 -3 -138 -28 -210 -15 -44 -39 -99 -53 -123 -14 -24 -22
-46 -20 -49 9 -8 66 98 86 162 70 216 60 386 -35 580 -42 87 -123 196 -123
165z"/>
<path d="M3089 5058 c-6 -60 4 -195 15 -205 10 -11 38 8 33 21 -3 8 1 20 9 27
10 8 11 15 4 24 -6 7 -8 19 -4 28 3 8 0 18 -5 22 -6 3 -9 11 -5 16 9 15 -16
79 -32 79 -8 0 -15 -6 -15 -12z"/>
<path d="M3118 4788 c9 -9 15 -9 24 0 9 9 7 12 -12 12 -19 0 -21 -3 -12 -12z"/>
<path d="M5280 4525 c-7 -9 -8 -15 -2 -15 5 0 12 7 16 15 3 8 4 15 2 15 -2 0
-9 -7 -16 -15z"/>
<path d="M3130 4490 c0 -5 5 -10 10 -10 6 0 10 5 10 10 0 6 -4 10 -10 10 -5 0
-10 -4 -10 -10z"/>
<path d="M5250 4489 c0 -5 5 -7 10 -4 6 3 10 8 10 11 0 2 -4 4 -10 4 -5 0 -10
-5 -10 -11z"/>
<path d="M5195 4430 c-3 -5 -2 -10 4 -10 5 0 13 5 16 10 3 6 2 10 -4 10 -5 0
-13 -4 -16 -10z"/>
<path d="M7895 5934 c-80 -7 -255 -44 -320 -69 -255 -96 -455 -264 -565 -476
-12 -24 -29 -56 -36 -71 -8 -14 -14 -34 -14 -44 0 -9 -7 -25 -16 -35 -8 -9
-19 -41 -23 -71 -4 -29 -10 -58 -13 -64 -11 -17 -38 -200 -38 -254 0 -74 18
-61 23 18 17 273 120 526 274 673 158 151 265 192 653 250 86 13 177 10 313
-12 203 -31 319 -83 429 -192 74 -73 74 -73 138 -203 119 -240 165 -536 119
-752 -25 -117 -117 -241 -225 -303 -77 -44 -86 -71 -11 -32 93 47 220 168 253
240 59 129 81 204 104 358 24 164 -12 417 -80 563 -91 193 -220 321 -399 397
-137 57 -393 93 -566 79z"/>
<path d="M7310 5799 c0 -5 -5 -7 -11 -3 -17 10 -99 -36 -99 -56 0 -5 16 -10
35 -12 19 -2 35 -1 35 2 0 3 20 16 45 28 50 24 60 52 20 52 -14 0 -25 -5 -25
-11z"/>
<path d="M7517 5699 c-146 -41 -257 -105 -351 -202 -148 -155 -216 -324 -216
-540 0 -174 58 -335 169 -467 58 -68 67 -77 116 -111 28 -19 27 -18 -5 13
-123 120 -213 269 -214 355 -1 22 -4 39 -8 36 -5 -2 -8 3 -8 12 0 12 5 15 16
11 9 -3 18 -6 20 -6 2 0 4 -5 4 -12 0 -6 6 -19 13 -27 7 -9 26 -47 42 -84 32
-77 94 -163 151 -207 22 -17 57 -45 78 -63 22 -18 81 -49 132 -70 90 -36 99
-38 221 -40 137 -2 189 8 307 59 55 25 124 66 136 82 3 4 17 17 32 29 36 27
107 115 142 176 15 26 41 87 58 135 26 73 31 100 30 172 -3 148 -23 236 -73
322 -16 27 -29 52 -29 56 0 5 -17 24 -37 44 -31 30 -45 36 -80 36 -47 -1 -128
35 -143 62 -7 12 -6 28 0 46 8 21 8 31 -2 40 -24 23 -131 74 -154 74 -13 0
-24 6 -24 13 0 14 84 16 145 3 62 -13 -53 34 -132 54 -101 25 -242 25 -336 -1z
m400 -35 c-3 -3 -12 -4 -19 -1 -8 3 -5 6 6 6 11 1 17 -2 13 -5z"/>
<path d="M8320 5374 c0 -14 40 -107 49 -114 8 -6 36 -101 52 -175 6 -27 10
-99 10 -160 -1 -82 2 -106 10 -98 8 8 12 54 11 131 0 130 -21 231 -68 326 -28
57 -63 107 -64 90z"/>
<path d="M9306 5021 c-8 -12 3 -41 15 -41 12 0 12 37 0 45 -5 3 -12 1 -15 -4z"/>
<path d="M8416 4772 c-4 -18 -19 -60 -32 -92 -27 -67 -30 -84 -10 -55 20 30
58 143 54 163 -3 11 -7 5 -12 -16z"/>
<path d="M6862 4685 c0 -16 2 -22 5 -12 2 9 2 23 0 30 -3 6 -5 -1 -5 -18z"/>
<path d="M8338 4583 c-19 -22 -32 -56 -18 -48 10 6 43 65 37 65 -2 0 -11 -8
-19 -17z"/>
<path d="M8275 4490 c-3 -5 -1 -10 4 -10 6 0 11 5 11 10 0 6 -2 10 -4 10 -3 0
-8 -4 -11 -10z"/>
<path d="M8462 4253 c-18 -8 -31 -17 -29 -19 6 -6 67 20 67 28 0 10 1 10 -38
-9z"/>
<path d="M8930 9730 c0 -19 3 -21 12 -12 9 9 9 15 0 24 -9 9 -12 7 -12 -12z"/>
<path d="M3195 9490 c-3 -5 -1 -10 4 -10 6 0 11 5 11 10 0 6 -2 10 -4 10 -3 0
-8 -4 -11 -10z"/>
<path d="M5710 3975 c0 -8 -13 -28 -30 -45 -34 -35 -38 -50 -12 -50 27 0 43
15 36 33 -3 9 3 25 15 38 20 21 20 39 0 39 -5 0 -9 -7 -9 -15z m-20 -75 c0 -5
-4 -10 -10 -10 -5 0 -10 5 -10 10 0 6 5 10 10 10 6 0 10 -4 10 -10z"/>
<path d="M5724 3848 c-5 -13 -7 -41 -4 -63 l6 -40 8 58 c9 63 5 80 -10 45z"/>
<path d="M5865 3663 c11 -3 26 -10 34 -17 11 -9 13 -8 9 4 -2 8 -18 16 -34 17
-18 1 -22 0 -9 -4z"/>
<path d="M3630 3469 c0 -5 5 -7 10 -4 6 3 10 8 10 11 0 2 -4 4 -10 4 -5 0 -10
-5 -10 -11z"/>
<path d="M5910 3415 c0 -8 5 -15 10 -15 6 0 10 7 10 15 0 8 -4 15 -10 15 -5 0
-10 -7 -10 -15z"/>
<path d="M9033 3423 c9 -2 23 -2 30 0 6 3 -1 5 -18 5 -16 0 -22 -2 -12 -5z"/>
<path d="M3720 3410 c0 -5 -6 -10 -14 -10 -7 0 -19 -7 -26 -15 -21 -26 13 -18
46 10 23 19 25 25 12 25 -10 0 -18 -4 -18 -10z"/>
<path d="M8975 3410 c-3 -5 5 -15 19 -22 14 -6 26 -15 26 -20 0 -4 10 -8 23
-8 20 1 19 3 -13 30 -38 32 -46 35 -55 20z"/>
<path d="M5935 3399 c-4 -6 -5 -13 -2 -16 7 -7 27 6 27 18 0 12 -17 12 -25 -2z"/>
<path d="M6403 3379 c-7 -7 -7 -18 1 -35 15 -32 26 -30 26 5 0 33 -11 46 -27
30z"/>
<path d="M8850 3376 c0 -9 7 -16 16 -16 17 0 14 22 -4 28 -7 2 -12 -3 -12 -12z"/>
<path d="M5978 3355 c-6 -28 16 -36 26 -9 9 24 7 34 -8 34 -7 0 -16 -11 -18
-25z"/>
<path d="M6469 3363 c-2 -11 -8 -83 -9 -110 0 -13 -5 -23 -10 -23 -13 0 -28
32 -23 48 3 6 0 12 -5 12 -5 0 -12 -11 -14 -25 -6 -29 18 -69 37 -61 7 2 18
-1 24 -7 8 -8 11 -5 12 14 2 54 5 62 18 67 10 3 12 -2 7 -21 -4 -17 -1 -27 8
-30 17 -7 24 25 15 73 -3 19 -7 27 -8 18 -2 -29 -21 -20 -28 12 -5 29 -21 50
-24 33z"/>
<path d="M5677 3342 c-25 -27 -21 -35 8 -16 25 16 33 34 17 34 -5 0 -16 -8
-25 -18z"/>
<path d="M5918 3346 c-11 -8 -18 -26 -18 -45 0 -18 -5 -41 -11 -53 -6 -11 -8
-22 -5 -25 3 -3 10 6 15 21 6 14 18 26 26 26 21 0 30 27 16 44 -6 7 -9 21 -5
30 7 19 5 20 -18 2z"/>
<path d="M8950 3349 c0 -5 5 -7 10 -4 6 3 10 8 10 11 0 2 -4 4 -10 4 -5 0 -10
-5 -10 -11z"/>
<path d="M9115 3350 c-3 -5 -17 -10 -31 -10 -29 0 -31 -15 -5 -30 14 -7 21 -6
24 3 3 6 6 2 6 -10 1 -13 -8 -32 -19 -43 -11 -11 -20 -29 -20 -40 0 -11 -6
-20 -14 -20 -26 0 -26 -16 -1 -40 l24 -23 12 29 c6 16 18 43 25 61 8 17 14 40
14 51 0 12 5 24 10 27 16 10 12 55 -4 55 -8 0 -18 -4 -21 -10z"/>
<path d="M3735 3289 c-4 -6 -5 -13 -2 -16 7 -7 27 6 27 18 0 12 -17 12 -25 -2z"/>
<path d="M3800 3275 c-14 -8 -35 -14 -47 -15 -31 0 -38 -17 -12 -30 17 -10 27
-7 60 14 55 37 54 62 -1 31z"/>
<path d="M5570 3261 c-6 -12 -7 -21 -1 -21 10 0 24 30 17 37 -2 3 -9 -5 -16
-16z"/>
<path d="M8844 3266 c11 -9 29 -16 40 -16 17 1 18 2 6 9 -8 5 -26 12 -40 15
-24 7 -24 6 -6 -8z"/>
<path d="M5750 3255 c-7 -8 -8 -15 -2 -15 5 0 15 7 22 15 7 8 8 15 2 15 -5 0
-15 -7 -22 -15z"/>
<path d="M6550 3256 c0 -7 7 -19 16 -27 13 -10 17 -10 24 1 6 9 3 18 -8 27
-22 16 -32 16 -32 -1z"/>
<path d="M6690 3260 c0 -5 5 -10 10 -10 6 0 10 5 10 10 0 6 -4 10 -10 10 -5 0
-10 -4 -10 -10z"/>
<path d="M3845 3241 c-11 -5 -29 -18 -39 -30 -30 -33 3 -27 44 9 35 29 33 36
-5 21z"/>
<path d="M5830 3240 c0 -5 5 -10 11 -10 5 0 7 5 4 10 -3 6 -8 10 -11 10 -2 0
-4 -4 -4 -10z"/>
<path d="M6721 3233 c3 -20 -2 -34 -11 -28 -22 14 -28 -7 -13 -43 22 -55 37
-65 30 -19 -5 32 -3 37 14 37 12 0 23 -10 29 -25 5 -14 12 -25 15 -25 11 0 -9
55 -29 83 -19 25 -37 36 -35 20z"/>
<path d="M8816 3232 c-3 -6 -1 -14 5 -17 15 -10 25 3 12 16 -7 7 -13 7 -17 1z"/>
<path d="M5746 3205 c-3 -9 0 -15 9 -15 8 0 15 7 15 15 0 8 -4 15 -9 15 -5 0
-11 -7 -15 -15z"/>
<path d="M5576 3195 c-11 -8 -28 -15 -38 -15 -10 0 -27 -9 -39 -21 -16 -16
-18 -23 -9 -34 8 -10 8 -19 0 -34 -13 -25 -7 -26 25 -5 14 9 41 16 62 17 21 0
50 9 65 19 32 22 38 22 38 2 0 -31 25 -7 31 29 7 41 -3 47 -34 20 -19 -18 -20
-17 -13 10 7 29 -10 37 -32 15 -9 -9 -12 -9 -12 0 0 16 -21 15 -44 -3z m-27
-49 c8 -10 8 -16 -2 -25 -16 -13 -27 -5 -27 21 0 21 13 23 29 4z"/>
<path d="M3865 3190 c-3 -5 -2 -10 4 -10 5 0 13 5 16 10 3 6 2 10 -4 10 -5 0
-13 -4 -16 -10z"/>
<path d="M5815 3176 c-15 -22 -18 -23 -43 -10 -32 16 -52 3 -29 -20 32 -33 97
-14 111 32 10 31 -19 30 -39 -2z"/>
<path d="M6560 3186 c0 -25 12 -46 26 -46 17 0 18 32 2 48 -16 16 -28 15 -28
-2z"/>
<path d="M6620 3150 c0 -5 5 -10 10 -10 6 0 10 5 10 10 0 6 -4 10 -10 10 -5 0
-10 -4 -10 -10z"/>
<path d="M9005 3129 c-5 -6 -1 -16 9 -21 19 -11 20 -17 1 -42 -13 -17 -18 -17
-64 -5 -28 7 -54 10 -57 6 -11 -11 16 -35 47 -42 16 -4 29 -10 29 -15 0 -13
-36 -18 -54 -8 -26 14 -30 3 -10 -27 19 -29 8 -47 -26 -38 -13 3 -19 -4 -25
-29 -9 -38 -9 -37 1 -63 7 -18 6 -18 -20 3 -30 23 -56 29 -56 12 0 -5 9 -15
20 -22 11 -7 20 -19 20 -26 0 -10 -5 -10 -20 -2 -11 6 -20 17 -20 24 0 8 -7
16 -15 20 -12 4 -14 0 -9 -19 4 -16 2 -25 -6 -25 -7 0 -10 -7 -6 -15 7 -20
-14 -19 -43 1 -15 11 -26 13 -33 6 -7 -7 0 -16 23 -28 33 -17 33 -17 12 -27
-16 -7 -27 -6 -38 3 -8 7 -32 14 -53 16 -20 2 -47 9 -59 15 -28 15 -45 2 -20
-15 9 -7 17 -18 17 -23 0 -6 7 -16 15 -23 13 -10 19 -10 33 4 24 21 38 20 62
-4 22 -22 24 -29 11 -48 -7 -12 -14 -11 -41 3 -29 15 -32 15 -27 1 3 -8 2 -18
-3 -21 -15 -9 -58 24 -62 47 -2 12 -9 24 -17 26 -25 8 -4 -56 26 -82 34 -30
24 -45 -13 -21 l-27 17 7 -28 c4 -16 4 -26 0 -22 -11 12 -46 -12 -40 -28 3 -8
-1 -14 -8 -14 -8 0 -16 -5 -18 -12 -7 -20 -56 0 -61 25 l-4 22 -8 -23 c-4 -12
-14 -21 -23 -20 -26 5 -22 -16 9 -41 26 -20 34 -22 52 -12 199 105 237 128
255 153 7 10 17 18 23 18 26 0 222 197 274 275 22 33 43 61 47 63 4 2 12 20
19 40 7 20 19 42 28 49 12 9 14 16 5 30 -13 22 -49 29 -59 12z"/>
<path d="M5360 3075 c7 -8 19 -15 28 -15 8 0 49 -16 90 -36 41 -19 100 -42
131 -50 72 -19 566 -36 712 -23 57 4 170 8 250 9 81 0 170 5 199 10 53 10 167
56 159 64 -2 3 -35 -2 -72 -10 -37 -7 -118 -16 -180 -18 -62 -2 -189 -7 -283
-11 -110 -5 -236 -3 -350 5 -99 6 -251 13 -339 15 -159 3 -236 14 -243 34 -2
6 -12 11 -23 11 -10 0 -19 7 -19 15 0 11 -11 15 -36 15 -31 0 -35 -2 -24 -15z"/>
<path d="M4045 3030 c-10 -11 -13 -20 -7 -20 6 0 16 9 22 20 6 11 9 20 7 20
-2 0 -12 -9 -22 -20z"/>
<path d="M4110 3020 c-8 -5 -11 -12 -7 -16 4 -4 13 -2 19 4 15 15 7 24 -12 12z"/>
<path d="M8682 2898 c-7 -7 -12 -25 -12 -40 0 -23 4 -28 24 -28 28 0 37 23 22
58 -11 25 -17 27 -34 10z"/>
<path d="M4085 2880 c3 -5 8 -10 11 -10 2 0 4 5 4 10 0 6 -5 10 -11 10 -5 0
-7 -4 -4 -10z"/>
<path d="M8520 2863 c0 -5 7 -18 15 -29 15 -18 15 -18 13 5 -3 23 -28 44 -28
24z"/>
<path d="M4162 2838 c-14 -14 -16 -38 -3 -38 10 0 26 39 19 46 -2 2 -10 -2
-16 -8z"/>
<path d="M4340 2795 c-10 -12 -10 -15 4 -15 9 0 16 7 16 15 0 8 -2 15 -4 15
-2 0 -9 -7 -16 -15z"/>
<path d="M8582 2798 c6 -18 48 -19 48 -2 0 8 -11 14 -26 14 -16 0 -24 -5 -22
-12z"/>
<path d="M4320 2690 c0 -5 5 -10 10 -10 6 0 10 5 10 10 0 6 -4 10 -10 10 -5 0
-10 -4 -10 -10z"/>
<path d="M4363 2673 c-15 -5 -17 -23 -4 -23 5 0 11 7 15 15 3 8 4 15 3 14 -1
0 -8 -3 -14 -6z"/>
<path d="M8310 2623 c0 -12 38 -48 45 -41 3 2 -6 15 -20 28 -14 13 -25 19 -25
13z"/>
<path d="M8440 2615 c-7 -9 -8 -15 -2 -15 5 0 12 7 16 15 3 8 4 15 2 15 -2 0
-9 -7 -16 -15z"/>
<path d="M4470 2592 c-14 -12 -21 -26 -18 -43 3 -22 5 -21 24 18 12 24 20 43
19 43 -2 0 -13 -8 -25 -18z"/>
<path d="M4542 2598 c-14 -14 -16 -38 -3 -38 5 0 11 11 13 25 6 29 6 29 -10
13z"/>
<path d="M4571 2574 c0 -11 3 -14 6 -6 3 7 2 16 -1 19 -3 4 -6 -2 -5 -13z"/>
<path d="M8269 2553 c-1 -5 0 -18 1 -30 2 -26 -27 -32 -49 -10 -11 10 -13 6
-9 -20 5 -35 -2 -39 -32 -23 -14 8 -30 6 -56 -5 -20 -8 -47 -12 -60 -9 -28 7
-33 -11 -6 -25 10 -5 18 -19 19 -31 2 -18 -2 -20 -33 -14 -28 5 -34 3 -34 -11
0 -15 -2 -15 -16 -4 -14 11 -18 10 -33 -9 -10 -15 -23 -21 -33 -17 -9 4 -22 0
-29 -8 -10 -11 -18 -12 -31 -4 -26 17 -68 -6 -68 -37 0 -29 -17 -43 -33 -27
-14 14 -30 14 -22 1 10 -16 -23 -60 -40 -54 -8 3 -22 -2 -31 -11 -9 -9 -23
-14 -30 -11 -7 3 -16 1 -19 -4 -4 -6 -15 -10 -26 -10 -22 0 -26 -28 -4 -36 18
-7 106 24 121 43 6 7 18 11 26 8 9 -4 18 1 22 10 4 10 12 15 21 11 17 -6 65
13 65 26 0 4 9 8 20 8 11 0 28 4 38 9 9 5 44 21 77 36 33 15 72 34 87 41 14 8
33 14 42 14 9 0 31 10 49 22 18 13 34 24 37 26 3 2 -3 8 -13 13 -9 6 -15 15
-12 20 4 5 18 0 32 -11 15 -12 29 -16 32 -11 4 5 19 13 34 16 36 10 43 22 22
45 -17 18 -17 32 0 73 5 12 2 17 -9 17 -9 0 -16 -3 -17 -7z m-99 -155 c0 -13
-17 -9 -30 7 -6 8 -8 20 -4 26 5 9 11 7 21 -6 7 -11 13 -22 13 -27z"/>
<path d="M8140 2514 c0 -8 5 -12 10 -9 6 4 8 11 5 16 -9 14 -15 11 -15 -7z"/>
<path d="M4550 2500 c0 -5 5 -10 11 -10 5 0 7 5 4 10 -3 6 -8 10 -11 10 -2 0
-4 -4 -4 -10z"/>
<path d="M6303 2474 c-17 -26 -17 -27 5 -42 14 -9 22 -25 22 -43 0 -38 15 -37
29 2 17 50 13 75 -14 93 -23 15 -25 15 -42 -10z"/>
<path d="M6166 2473 c-4 -11 -1 -22 8 -29 20 -14 20 -24 2 -24 -8 0 -18 9 -21
20 -6 19 -35 29 -35 12 0 -12 39 -42 54 -42 16 0 25 -19 19 -37 -3 -7 -11 -13
-19 -13 -8 0 -14 -4 -14 -10 0 -12 2 -12 36 0 38 15 58 6 44 -19 -16 -30 8
-38 28 -10 10 14 17 43 17 69 0 36 -5 50 -25 67 -18 15 -28 18 -38 11 -9 -8
-18 -6 -31 6 -17 16 -19 16 -25 -1z"/>
<path d="M6057 2453 c-12 -11 -7 -40 8 -53 24 -20 38 0 26 33 -10 27 -21 33
-34 20z"/>
<path d="M6470 2438 c0 -9 5 -20 10 -23 13 -8 13 5 0 25 -8 13 -10 13 -10 -2z"/>
<path d="M6390 2426 c0 -8 5 -18 10 -21 6 -3 10 3 10 14 0 12 -4 21 -10 21 -5
0 -10 -6 -10 -14z"/>
<path d="M8000 2415 c0 -8 7 -11 20 -8 22 6 19 15 -5 19 -8 1 -15 -4 -15 -11z"/>
<path d="M5172 2350 c-33 -31 -27 -44 8 -18 29 21 39 38 22 38 -5 0 -18 -9
-30 -20z"/>
<path d="M4827 2353 c-12 -11 -7 -33 7 -33 12 0 26 20 26 36 0 7 -26 5 -33 -3z"/>
<path d="M4885 2329 c-10 -15 3 -25 16 -12 7 7 7 13 1 17 -6 3 -14 1 -17 -5z"/>
<path d="M5000 2319 c0 -5 5 -7 10 -4 6 3 10 8 10 11 0 2 -4 4 -10 4 -5 0 -10
-5 -10 -11z"/>
<path d="M6514 2268 c9 -43 26 -60 26 -26 0 34 -9 58 -22 58 -6 0 -8 -13 -4
-32z"/>
<path d="M5015 2260 c-3 -5 -1 -10 4 -10 6 0 11 5 11 10 0 6 -2 10 -4 10 -3 0
-8 -4 -11 -10z"/>
<path d="M6045 2260 c-3 -5 -1 -10 4 -10 6 0 11 5 11 10 0 6 -2 10 -4 10 -3 0
-8 -4 -11 -10z"/>
<path d="M6337 2263 c-2 -5 -4 -21 -5 -38 -1 -16 -7 -42 -13 -57 -12 -29 -7
-58 11 -58 5 0 10 18 10 40 0 42 14 51 40 28 8 -8 6 -1 -4 15 -13 22 -15 32
-6 42 7 8 9 19 5 25 -7 12 -32 14 -38 3z"/>
<path d="M6412 2250 c0 -14 2 -19 5 -12 2 6 2 18 0 25 -3 6 -5 1 -5 -13z"/>
<path d="M6261 2253 c0 -4 4 -17 9 -28 8 -19 9 -19 9 2 1 12 -3 25 -9 28 -5 3
-10 3 -9 -2z"/>
<path d="M5154 2193 c-35 -48 -37 -53 -17 -46 25 9 39 25 47 51 10 30 -6 28
-30 -5z"/>
<path d="M7500 2201 c0 -5 5 -13 10 -16 6 -3 10 -2 10 4 0 5 -4 13 -10 16 -5
3 -10 2 -10 -4z"/>
<path d="M5206 2181 c-4 -7 -5 -15 -2 -18 9 -9 19 4 14 18 -4 11 -6 11 -12 0z"/>
<path d="M7530 2146 c0 -8 4 -17 9 -20 5 -4 7 3 4 14 -6 23 -13 26 -13 6z"/>
<path d="M6410 2122 c0 -21 28 -38 41 -25 4 4 -3 16 -17 26 -23 17 -24 17 -24
-1z"/>
<path d="M6894 2101 c20 -22 26 -25 26 -13 0 4 -10 13 -22 21 -23 14 -23 14
-4 -8z"/>
<path d="M6213 2094 c-3 -8 -1 -20 6 -27 8 -8 11 -8 11 0 0 6 3 18 6 27 3 9 1
16 -5 16 -7 0 -14 -7 -18 -16z"/>
<path d="M5684 2072 c-6 -4 -23 -24 -38 -44 l-28 -38 26 0 c20 0 26 -5 26 -22
l0 -22 16 22 c8 12 12 27 9 32 -6 9 7 14 27 11 4 0 13 9 19 20 10 20 9 21 -15
15 -19 -5 -24 -3 -20 8 6 16 -8 28 -22 18z"/>
<path d="M6709 2074 c-2 -14 1 -47 6 -71 5 -20 8 -21 29 -12 16 8 22 17 19 29
-6 21 -52 68 -54 54z"/>
<path d="M6385 2060 c-4 -6 -3 -16 3 -22 6 -6 12 -6 17 2 4 6 3 16 -3 22 -6 6
-12 6 -17 -2z"/>
<path d="M5606 2043 c-6 -14 -5 -15 5 -6 7 7 10 15 7 18 -3 3 -9 -2 -12 -12z"/>
<path d="M6010 2051 c0 -5 -3 -16 -6 -25 -4 -11 -1 -16 10 -16 9 0 16 4 16 9
0 5 3 16 6 25 4 11 1 16 -10 16 -9 0 -16 -4 -16 -9z"/>
<path d="M6140 2029 c0 -5 5 -7 10 -4 6 3 10 8 10 11 0 2 -4 4 -10 4 -5 0 -10
-5 -10 -11z"/>
<path d="M7280 1947 c0 -8 7 -18 16 -21 11 -4 14 -1 12 11 -4 21 -28 30 -28
10z"/>
<path d="M7450 1780 c-9 -6 -10 -10 -3 -10 6 0 15 5 18 10 8 12 4 12 -15 0z"/>
<path d="M4253 908 c-5 -7 -22 -38 -37 -69 -19 -38 -42 -67 -72 -88 -43 -30
-44 -32 -44 -85 0 -52 -1 -55 -37 -73 -59 -31 -214 -127 -369 -229 -95 -62
-156 -110 -186 -146 -44 -51 -148 -202 -148 -213 0 -3 18 -5 40 -5 27 0 43 5
46 15 4 10 13 13 25 10 13 -4 19 -1 19 8 0 8 11 22 25 31 14 9 25 22 25 29 0
7 10 17 23 22 12 6 26 20 32 32 11 25 75 54 104 46 10 -2 22 0 25 6 4 6 22 11
41 11 18 0 35 5 37 12 5 14 176 12 215 -3 18 -6 23 -5 23 6 0 8 5 15 10 15 6
0 10 -7 10 -15 0 -23 36 -58 50 -50 7 4 10 15 7 25 -6 22 39 35 47 14 3 -7 17
-16 31 -20 14 -3 25 -13 25 -23 0 -32 13 -39 63 -31 26 4 47 3 47 -2 0 -4 -4
-8 -10 -8 -15 0 -12 -17 6 -35 15 -15 18 -15 35 1 17 15 21 15 42 1 13 -9 30
-22 38 -29 8 -7 33 -25 56 -41 40 -25 50 -27 148 -27 98 0 132 10 85 25 -11 3
-20 10 -20 16 0 5 -16 15 -35 23 -19 8 -35 19 -35 23 0 5 -17 28 -37 52 -21
24 -38 46 -38 49 0 10 -47 85 -67 107 -22 23 -18 40 8 40 18 1 22 24 5 35 -5
3 -14 23 -21 45 -12 36 -35 83 -124 249 -14 27 -26 57 -26 67 0 10 -4 20 -9
23 -5 3 -12 18 -16 33 -3 16 -13 35 -21 44 -8 9 -14 24 -13 35 5 50 -7 69 -28
42z m187 -518 c12 -7 12 -12 2 -22 -9 -9 -12 -9 -12 4 0 9 -6 19 -12 21 -7 3
-8 6 -3 6 6 0 17 -4 25 -9z"/>
<path d="M7472 652 c-23 -20 -42 -40 -42 -44 0 -11 50 14 50 25 0 5 10 17 23
27 12 10 20 21 17 23 -3 3 -24 -11 -48 -31z"/>
</g>
</svg>
